<?xml version="1.0" standalone="no"?>
<!DOCTYPE svg PUBLIC "-//W3C//DTD SVG 20010904//EN"
 "http://www.w3.org/TR/2001/REC-SVG-20010904/DTD/svg10.dtd">
<svg version="1.0" xmlns="http://www.w3.org/2000/svg"
 width="260.000000pt" height="260.000000pt" viewBox="0 0 260.000000 260.000000"
 preserveAspectRatio="xMidYMid meet">
<metadata>
Created by potrace 1.11, written by Peter Selinger 2001-2013
</metadata>
<g transform="translate(0.000000,260.000000) scale(0.100000,-0.100000)"
fill="#000000" stroke="none">
<path d="M350 1490 l0 -570 380 0 380 0 0 -190 0 -190 190 0 190 0 0 190 0
190 380 0 380 0 0 570 0 570 -190 0 -190 0 0 -380 0 -380 -190 0 -190 0 0 380
0 380 -190 0 -190 0 0 -380 0 -380 -190 0 -190 0 0 380 0 380 -190 0 -190 0 0
-570z m1140 -380 l0 -190 -190 0 -190 0 0 190 0 190 190 0 190 0 0 -190z"/>
</g>
</svg>
